<svg width="99" height="16" viewBox="0 0 99 16" fill="none" xmlns="http://www.w3.org/2000/svg">
<path d="M27.3135 3.7041C32.2593 3.7041 33.501 4.92643 33.501 9.85254C33.5009 14.7784 32.2592 16 27.3135 16C22.3679 16 21.126 14.7783 21.126 9.85254C21.126 4.92648 22.3678 3.70412 27.3135 3.7041ZM58.2812 3.7041C62.9512 3.7041 64.1925 4.78842 64.291 9.08398V10.916H56.2324C56.3112 12.985 56.686 13.2412 58.3018 13.2412C59.858 13.2412 60.252 12.9851 60.252 12H64.1934C64.1145 15.1921 62.9315 16 58.2812 16C53.4738 15.9999 52.2715 14.7783 52.2715 9.85254C52.2715 4.92655 53.4737 3.70416 58.2812 3.7041ZM83.1357 3.7041C87.6676 3.7041 88.8105 4.51226 88.8105 7.7041V8.05957H85.0674V7.7041C85.0673 6.58126 84.8696 6.46289 83.1357 6.46289C81.4611 6.4629 81.2842 6.5621 81.2842 7.38965C81.2844 7.94096 81.619 8.11846 82.9189 8.31543C87.8645 9.12326 89.1063 9.99004 89.1064 12.6104C89.1064 15.3296 87.9042 16 83.1357 16C78.2889 16 77.0675 15.2118 77.0674 12.0596V11.8027H80.8105V12.0596C80.8106 13.1231 81.0279 13.2412 83.0371 13.2412C84.9484 13.2412 85.165 13.1428 85.165 12.335C85.165 11.7438 84.6135 11.488 82.3672 11.0742C78.3477 10.2861 77.3428 9.53647 77.3428 7.27051C77.3429 4.41377 78.5056 3.70412 83.1357 3.7041ZM1.37793 0.392578V1.0332H2.75586V0.392578H4.13379V15.7666H2.75586V15.126H1.37793V15.7666H0V0.392578H1.37793ZM10.1943 11.8223H10.3525L12.6768 0.394531H19.9482V15.7637H15.8105V4.33496H15.6924L13.3672 15.7637H6.96289L4.65723 4.33496V0.394531H7.88867L10.1943 11.8223ZM40.0322 13.0049H40.1504L42.7314 3.94043H46.4561L42.8506 15.7637H37.0771L33.8057 3.94043H37.6875L40.0322 13.0049ZM50.9951 15.7637H47.251V3.94043H50.9951V15.7637ZM69.2158 11.4092C69.2159 12.3152 69.3738 12.4141 70.7725 12.4141V15.7637H68.625C66.0832 15.7637 65.453 15.1133 65.4727 12.5322V0H69.2158V11.4092ZM75.79 15.7637H72.0459V3.94043H75.79V15.7637ZM95.0156 3.94043H98.1689V7.09375H95.0156V10.8174C95.0156 12.2557 95.1536 12.414 96.375 12.4141H98.3652V15.7637H96.001C92.2177 15.7637 91.2715 14.9753 91.2715 11.7832V7.09375H90.0898V3.94043H91.4688V1.41895H95.0156V3.94043ZM1.37793 13.8447H2.75586V12.5635H1.37793V13.8447ZM27.3135 6.66016C25.284 6.66017 25.0674 6.97576 25.0674 9.85254C25.0674 12.729 25.2841 13.0439 27.3135 13.0439C29.343 13.0439 29.5596 12.7291 29.5596 9.85254C29.5596 6.97569 29.343 6.66016 27.3135 6.66016ZM1.37793 10.001V11.2822H2.75586V10.001H1.37793ZM1.37793 8.71973H2.75586V7.43945H1.37793V8.71973ZM58.3018 6.46289C56.8438 6.46289 56.3899 6.66005 56.252 8.15723H60.3506C60.3111 6.64049 60.0352 6.46292 58.3018 6.46289ZM1.37793 4.87598V6.1582H2.75586V4.87598H1.37793ZM1.37793 3.59473H2.75586V2.31348H1.37793V3.59473ZM51.0938 2.75879H47.1523V0H51.0938V2.75879ZM75.8887 2.75879H71.9473V0H75.8887V2.75879Z" fill="#F33F3F"/>
</svg>
